<svg fill="none" viewBox="0 0 800 200" xmlns="http://www.w3.org/2000/svg" xmlns:xlink="http://www.w3.org/1999/xlink"><linearGradient id="a" x1="0%" x2="100%" y1="0%" y2="100%"><stop offset="0" stop-color="#0c0a09"/><stop offset="1" stop-color="#1c1917"/></linearGradient><linearGradient id="b" x1="0%" x2="100%" y1="0%" y2="100%"><stop offset="0" stop-color="#065f46"/><stop offset="1" stop-color="#064e3b"/></linearGradient><linearGradient id="c" x1="0%" x2="100%" y1="0%" y2="100%"><stop offset="0" stop-color="#92400e"/><stop offset="1" stop-color="#78350f"/></linearGradient><linearGradient id="d" x1="0%" x2="100%" y1="0%" y2="100%"><stop offset="0" stop-color="#1e40af"/><stop offset="1" stop-color="#1e3a8a"/></linearGradient><rect fill="url(#a)" height="200" rx="16" width="800"/><g transform="matrix(.99939083 -.0348995 .0348995 .99939083 530 38)"><rect fill="url(#d)" height="52" opacity=".5" rx="8" stroke="#3b82f6" width="240"/><rect fill="#3b82f6" height="3" opacity=".4" rx="1.5" width="240"/><circle cx="22" cy="26" fill="#3b82f6" opacity=".6" r="9"/><path d="m22 21v4m0 4h.01" stroke="#fff" stroke-linecap="round" stroke-width="1.5"/><g fill="#fff"><rect height="6" opacity=".25" rx="3" width="100" x="40" y="19"/><rect height="5" opacity=".12" rx="2.5" width="160" x="40" y="29"/></g></g><g transform="matrix(.99996192 .00872654 -.00872654 .99996192 540 68)"><rect fill="url(#c)" height="52" opacity=".7" rx="8" stroke="#f59e0b" width="240"/><rect fill="#f59e0b" height="3" opacity=".5" rx="1.5" width="240"/><circle cx="22" cy="26" fill="#f59e0b" opacity=".6" r="9"/><path d="m22 20v4m0 4h.01" stroke="#fff" stroke-linecap="round" stroke-width="1.5"/><g fill="#fff"><rect height="6" opacity=".3" rx="3" width="80" x="40" y="19"/><rect height="5" opacity=".15" rx="2.5" width="140" x="40" y="29"/></g></g><g transform="matrix(.9998477 .01745241 -.01745241 .9998477 548 100)"><rect fill="url(#b)" height="52" opacity=".9" rx="8" stroke="#22c55e" width="240"/><rect fill="#22c55e" height="3" opacity=".7" rx="1.5" width="168"/><circle cx="22" cy="26" fill="#22c55e" opacity=".7" r="9"/><path d="m18 26 3 3 5-6" fill="none" stroke="#fff" stroke-linecap="round" stroke-linejoin="round" stroke-width="1.5"/><rect fill="#fff" height="6" opacity=".4" rx="3" width="90" x="40" y="19"/><rect fill="#fff" height="5" opacity=".2" rx="2.5" width="150" x="40" y="29"/><path d="m0 0 8 8m0-8-8 8" opacity=".4" stroke="#fff" stroke-linecap="round" stroke-width="1.2" transform="translate(218 18)"/></g><text fill="#fff" font-family="system-ui, -apple-system, 'Segoe UI', sans-serif" font-size="40" font-weight="700" letter-spacing="-.5" x="60" y="85">Laravel Toast</text><text fill="#a8a29e" font-family="system-ui, -apple-system, 'Segoe UI', sans-serif" font-size="14" letter-spacing=".3" x="60" y="115">Powerful, highly configurable toast notifications</text><g transform="translate(60 135)"><rect fill="#1a1a1a" height="22" opacity=".8" rx="11" stroke="#f59e0b" stroke-width=".8" width="92"/><text fill="#fbbf24" font-family="system-ui, sans-serif" font-size="10" font-weight="500" text-anchor="middle" x="46" y="15">56 Animations</text><rect fill="#1a1a1a" height="22" opacity=".8" rx="11" stroke="#22c55e" stroke-width=".8" width="72" x="100"/><text fill="#4ade80" font-family="system-ui, sans-serif" font-size="10" font-weight="500" text-anchor="middle" x="136" y="15">19 Props</text><rect fill="#1a1a1a" height="22" opacity=".8" rx="11" stroke="#3b82f6" stroke-width=".8" width="80" x="180"/><text fill="#60a5fa" font-family="system-ui, sans-serif" font-size="10" font-weight="500" text-anchor="middle" x="220" y="15">Dark Mode</text><rect fill="#1a1a1a" height="22" opacity=".8" rx="11" stroke="#8b5cf6" stroke-width=".8" width="56" x="268"/><text fill="#a78bfa" font-family="system-ui, sans-serif" font-size="10" font-weight="500" text-anchor="middle" x="296" y="15">RTL</text><rect fill="#1a1a1a" height="22" opacity=".8" rx="11" stroke="#ef4444" stroke-width=".8" width="96" x="332"/><text fill="#f87171" font-family="system-ui, sans-serif" font-size="10" font-weight="500" text-anchor="middle" x="380" y="15">15 Frameworks</text></g><circle cx="60" cy="90" fill="#f59e0b" opacity=".02" r="100"/><circle cx="650" cy="90" fill="#22c55e" opacity=".03" r="100"/></svg>