<svg fill="none" viewBox="0 0 800 200" xmlns="http://www.w3.org/2000/svg" xmlns:xlink="http://www.w3.org/1999/xlink"><linearGradient id="a" x1="0%" x2="100%" y1="0%" y2="100%"><stop offset="0" stop-color="#dcfce7"/><stop offset="1" stop-color="#d1fae5"/></linearGradient><linearGradient id="b" x1="0%" x2="100%" y1="0%" y2="100%"><stop offset="0" stop-color="#fef3c7"/><stop offset="1" stop-color="#fef9c3"/></linearGradient><linearGradient id="c" x1="0%" x2="100%" y1="0%" y2="100%"><stop offset="0" stop-color="#dbeafe"/><stop offset="1" stop-color="#e0f2fe"/></linearGradient><rect fill="#fff" height="200" rx="16" width="800"/><rect fill="none" height="200" rx="16" stroke="#e5e7eb" width="800"/><g transform="matrix(.99939083 -.0348995 .0348995 .99939083 530 38)"><rect fill="url(#c)" height="52" opacity=".7" rx="8" stroke="#93c5fd" width="240"/><rect fill="#3b82f6" height="3" opacity=".3" rx="1.5" width="240"/><circle cx="22" cy="26" fill="#3b82f6" opacity=".2" r="9"/><path d="m22 21v4m0 4h.01" stroke="#3b82f6" stroke-linecap="round" stroke-width="1.5"/><g fill="#1e40af"><rect height="6" opacity=".12" rx="3" width="100" x="40" y="19"/><rect height="5" opacity=".06" rx="2.5" width="160" x="40" y="29"/></g></g><g transform="matrix(.99996192 .00872654 -.00872654 .99996192 540 68)"><rect fill="url(#b)" height="52" opacity=".8" rx="8" stroke="#fcd34d" width="240"/><rect fill="#f59e0b" height="3" opacity=".4" rx="1.5" width="240"/><circle cx="22" cy="26" fill="#f59e0b" opacity=".2" r="9"/><path d="m22 20v4m0 4h.01" stroke="#b45309" stroke-linecap="round" stroke-width="1.5"/><g fill="#92400e"><rect height="6" opacity=".15" rx="3" width="80" x="40" y="19"/><rect height="5" opacity=".08" rx="2.5" width="140" x="40" y="29"/></g></g><g transform="matrix(.9998477 .01745241 -.01745241 .9998477 548 100)"><rect fill="url(#a)" height="52" opacity=".9" rx="8" stroke="#86efac" width="240"/><rect fill="#22c55e" height="3" opacity=".5" rx="1.5" width="168"/><circle cx="22" cy="26" fill="#22c55e" opacity=".25" r="9"/><path d="m18 26 3 3 5-6" fill="none" stroke="#166534" stroke-linecap="round" stroke-linejoin="round" stroke-width="1.5"/><rect fill="#166534" height="6" opacity=".2" rx="3" width="90" x="40" y="19"/><rect fill="#166534" height="5" opacity=".1" rx="2.5" width="150" x="40" y="29"/><path d="m0 0 8 8m0-8-8 8" opacity=".25" stroke="#166534" stroke-linecap="round" stroke-width="1.2" transform="translate(218 18)"/></g><text fill="#0f172a" font-family="system-ui, -apple-system, 'Segoe UI', sans-serif" font-size="40" font-weight="700" letter-spacing="-.5" x="60" y="85">Laravel Toast</text><text fill="#64748b" font-family="system-ui, -apple-system, 'Segoe UI', sans-serif" font-size="14" letter-spacing=".3" x="60" y="115">Powerful, highly configurable toast notifications</text><g transform="translate(60 135)"><rect fill="#fffbeb" height="22" rx="11" stroke="#f59e0b" stroke-width=".8" width="92"/><text fill="#b45309" font-family="system-ui, sans-serif" font-size="10" font-weight="500" text-anchor="middle" x="46" y="15">56 Animations</text><rect fill="#f0fdf4" height="22" rx="11" stroke="#22c55e" stroke-width=".8" width="72" x="100"/><text fill="#166534" font-family="system-ui, sans-serif" font-size="10" font-weight="500" text-anchor="middle" x="136" y="15">19 Props</text><rect fill="#eff6ff" height="22" rx="11" stroke="#3b82f6" stroke-width=".8" width="80" x="180"/><text fill="#1e40af" font-family="system-ui, sans-serif" font-size="10" font-weight="500" text-anchor="middle" x="220" y="15">Dark Mode</text><rect fill="#f5f3ff" height="22" rx="11" stroke="#8b5cf6" stroke-width=".8" width="56" x="268"/><text fill="#6d28d9" font-family="system-ui, sans-serif" font-size="10" font-weight="500" text-anchor="middle" x="296" y="15">RTL</text><rect fill="#fef2f2" height="22" rx="11" stroke="#ef4444" stroke-width=".8" width="96" x="332"/><text fill="#b91c1c" font-family="system-ui, sans-serif" font-size="10" font-weight="500" text-anchor="middle" x="380" y="15">15 Frameworks</text></g></svg>